# xmcd
#
# Track frame offsets:
#	150
#	11652
#	20077
#	31044
#	37752
#	49575
#	59802
#	70385
#	80690
#	92735
#	103045
#	111525
#	119745
#	129790
#
# Disc length: 1880 seconds
# Revision: 0
# Processed by: cddbd v1.5.2PL0 Copyright (c) Steve Scherf et al.
# Submitted via: dBpowerAMP V12.0
#
DISCID=bf07560e
DTITLE=Waylon Jennings - It's So Easy and Other Favorites (Digitally Remastered)
DYEAR=1999
DGENRE=Country
TTITLE0=Dream Baby
TTITLE1=Abilene
TTITLE2=Big Mamou
TTITLE3=It's So Easy
TTITLE4=Crying
TTITLE5=White Lightnin'
TTITLE6=Burning Memories
TTITLE7=Lorena
TTITLE8=Don't Think Twice, It's All Right
TTITLE9=Money (That's What I Want)
TTITLE10=Love's Gonna Live Here
TTITLE11=Jolé Blon
TTITLE12=When Sin Stops (Love Begins)
TTITLE13=Sally Was A Good Old Girl
EXTD=
EXTT0=
EXTT1=
EXTT2=
EXTT3=
EXTT4=
EXTT5=
EXTT6=
EXTT7=
EXTT8=
EXTT9=
EXTT10=
EXTT11=
EXTT12=
EXTT13=
PLAYORDER=
